<svg width="41" height="25" viewBox="0 0 41 25" fill="none" xmlns="http://www.w3.org/2000/svg">
<g clip-path="url(#clip0_25_11)">
<path d="M8.37216 19L12.9261 9.99148V9.91193H7.67614V8.81818H14.1989V9.97159L9.66477 19H8.37216ZM19.1543 19.1392C18.4052 19.1392 17.7672 18.9354 17.2402 18.5277C16.7132 18.1167 16.3105 17.5218 16.0321 16.7429C15.7537 15.9607 15.6145 15.0161 15.6145 13.9091C15.6145 12.8087 15.7537 11.8691 16.0321 11.0902C16.3139 10.308 16.7182 9.71141 17.2452 9.30043C17.7755 8.88613 18.4119 8.67898 19.1543 8.67898C19.8967 8.67898 20.5314 8.88613 21.0584 9.30043C21.5887 9.71141 21.9931 10.308 22.2715 11.0902C22.5532 11.8691 22.6941 12.8087 22.6941 13.9091C22.6941 15.0161 22.5549 15.9607 22.2765 16.7429C21.998 17.5218 21.5953 18.1167 21.0684 18.5277C20.5414 18.9354 19.9033 19.1392 19.1543 19.1392ZM19.1543 18.0455C19.8967 18.0455 20.4734 17.6875 20.8844 16.9716C21.2954 16.2557 21.5009 15.2348 21.5009 13.9091C21.5009 13.0275 21.4064 12.2768 21.2175 11.657C21.0319 11.0372 20.7634 10.5649 20.4121 10.2401C20.0641 9.91525 19.6448 9.75284 19.1543 9.75284C18.4185 9.75284 17.8435 10.1158 17.4292 10.8416C17.0149 11.5642 16.8077 12.5866 16.8077 13.9091C16.8077 14.7907 16.9005 15.5398 17.0861 16.1562C17.2717 16.7727 17.5385 17.2417 17.8865 17.5632C18.2379 17.8847 18.6605 18.0455 19.1543 18.0455ZM27.9043 19.1392C27.1552 19.1392 26.5172 18.9354 25.9902 18.5277C25.4632 18.1167 25.0605 17.5218 24.7821 16.7429C24.5037 15.9607 24.3645 15.0161 24.3645 13.9091C24.3645 12.8087 24.5037 11.8691 24.7821 11.0902C25.0639 10.308 25.4682 9.71141 25.9952 9.30043C26.5255 8.88613 27.1619 8.67898 27.9043 8.67898C28.6467 8.67898 29.2814 8.88613 29.8084 9.30043C30.3387 9.71141 30.7431 10.308 31.0215 11.0902C31.3032 11.8691 31.4441 12.8087 31.4441 13.9091C31.4441 15.0161 31.3049 15.9607 31.0265 16.7429C30.748 17.5218 30.3453 18.1167 29.8184 18.5277C29.2914 18.9354 28.6533 19.1392 27.9043 19.1392ZM27.9043 18.0455C28.6467 18.0455 29.2234 17.6875 29.6344 16.9716C30.0454 16.2557 30.2509 15.2348 30.2509 13.9091C30.2509 13.0275 30.1564 12.2768 29.9675 11.657C29.7819 11.0372 29.5134 10.5649 29.1621 10.2401C28.8141 9.91525 28.3948 9.75284 27.9043 9.75284C27.1685 9.75284 26.5935 10.1158 26.1792 10.8416C25.7649 11.5642 25.5577 12.5866 25.5577 13.9091C25.5577 14.7907 25.6505 15.5398 25.8361 16.1562C26.0217 16.7727 26.2885 17.2417 26.6365 17.5632C26.9879 17.8847 27.4105 18.0455 27.9043 18.0455Z" fill="black"/>
<path d="M33.1875 9.45312V4.29687H34.0625V9.45312H33.1875ZM31.0469 7.3125V6.4375H36.2031V7.3125H31.0469Z" fill="black"/>
</g>
<defs>
<clipPath id="clip0_25_11">
<rect width="41" height="25" rx="2" fill="white"/>
</clipPath>
</defs>
</svg>
