<svg width="135" height="33" viewBox="0 0 135 33" fill="none" xmlns="http://www.w3.org/2000/svg">
<path d="M32 16C32 7.16344 24.8366 0 16 0C7.16344 0 0 7.16344 0 16C0 24.8366 7.16344 32 16 32C18.5103 32 20.8856 31.4219 23 30.3915V16.7759C22.6138 20.3001 19.6271 23.0422 16 23.0422C12.1107 23.0422 8.95775 19.8893 8.95775 16C8.95775 12.1107 12.1107 8.95775 16 8.95775C19.8893 8.95775 23.0423 12.1107 23.0423 16H32Z" fill="#00CBA4"/>
<path d="M49.5568 23.2727C49.5568 25.1761 49.196 26.7955 48.4744 28.1307C47.7585 29.4659 46.7813 30.4858 45.5426 31.1903C44.3097 31.8892 42.9233 32.2386 41.3835 32.2386C39.8324 32.2386 38.4403 31.8864 37.2074 31.1818C35.9744 30.4773 35 29.4574 34.2841 28.1222C33.5682 26.7869 33.2102 25.1705 33.2102 23.2727C33.2102 21.3693 33.5682 19.75 34.2841 18.4148C35 17.0795 35.9744 16.0625 37.2074 15.3636C38.4403 14.6591 39.8324 14.3068 41.3835 14.3068C42.9233 14.3068 44.3097 14.6591 45.5426 15.3636C46.7813 16.0625 47.7585 17.0795 48.4744 18.4148C49.196 19.75 49.5568 21.3693 49.5568 23.2727ZM45.8153 23.2727C45.8153 22.0398 45.6307 21 45.2614 20.1534C44.8977 19.3068 44.3835 18.6648 43.7188 18.2273C43.054 17.7898 42.2756 17.571 41.3835 17.571C40.4915 17.571 39.7131 17.7898 39.0483 18.2273C38.3835 18.6648 37.8665 19.3068 37.4972 20.1534C37.1335 21 36.9517 22.0398 36.9517 23.2727C36.9517 24.5057 37.1335 25.5455 37.4972 26.392C37.8665 27.2386 38.3835 27.8807 39.0483 28.3182C39.7131 28.7557 40.4915 28.9744 41.3835 28.9744C42.2756 28.9744 43.054 28.7557 43.7188 28.3182C44.3835 27.8807 44.8977 27.2386 45.2614 26.392C45.6307 25.5455 45.8153 24.5057 45.8153 23.2727Z" fill="white"/>
<path d="M63.0717 14.5455H66.7621V25.8807C66.7621 27.1534 66.4581 28.267 65.8501 29.2216C65.2479 30.1761 64.4041 30.9205 63.3189 31.4545C62.2337 31.983 60.9695 32.2472 59.5263 32.2472C58.0774 32.2472 56.8104 31.983 55.7251 31.4545C54.6399 30.9205 53.7962 30.1761 53.1939 29.2216C52.5916 28.267 52.2905 27.1534 52.2905 25.8807V14.5455H55.9808V25.5653C55.9808 26.2301 56.1257 26.821 56.4155 27.3381C56.7109 27.8551 57.1257 28.2614 57.6598 28.5568C58.1939 28.8523 58.8161 29 59.5263 29C60.2422 29 60.8643 28.8523 61.3928 28.5568C61.9268 28.2614 62.3388 27.8551 62.6286 27.3381C62.924 26.821 63.0717 26.2301 63.0717 25.5653V14.5455Z" fill="white"/>
<path d="M85.1989 20.6562H81.4659C81.3977 20.1733 81.2585 19.7443 81.0483 19.3693C80.8381 18.9886 80.5682 18.6648 80.2386 18.3977C79.9091 18.1307 79.5284 17.9261 79.0966 17.7841C78.6705 17.642 78.2074 17.571 77.7074 17.571C76.804 17.571 76.017 17.7955 75.3466 18.2443C74.6761 18.6875 74.1563 19.3352 73.7869 20.1875C73.4176 21.0341 73.233 22.0625 73.233 23.2727C73.233 24.517 73.4176 25.5625 73.7869 26.4091C74.1619 27.2557 74.6847 27.8949 75.3551 28.3267C76.0256 28.7585 76.8011 28.9744 77.6818 28.9744C78.1761 28.9744 78.6335 28.9091 79.054 28.7784C79.4801 28.6477 79.858 28.4574 80.1875 28.2074C80.517 27.9517 80.7898 27.642 81.0057 27.2784C81.2273 26.9148 81.3807 26.5 81.4659 26.0341L85.1989 26.0511C85.1023 26.8523 84.8608 27.625 84.4744 28.3693C84.0938 29.108 83.5795 29.7699 82.9318 30.3551C82.2898 30.9347 81.5227 31.3949 80.6307 31.7358C79.7443 32.071 78.7415 32.2386 77.6222 32.2386C76.0653 32.2386 74.6733 31.8864 73.446 31.1818C72.2244 30.4773 71.2585 29.4574 70.5483 28.1222C69.8437 26.7869 69.4915 25.1705 69.4915 23.2727C69.4915 21.3693 69.8494 19.75 70.5653 18.4148C71.2812 17.0795 72.2528 16.0625 73.4801 15.3636C74.7074 14.6591 76.0881 14.3068 77.6222 14.3068C78.6335 14.3068 79.571 14.4489 80.4347 14.733C81.304 15.017 82.0739 15.4318 82.7443 15.9773C83.4148 16.517 83.9602 17.179 84.3807 17.9631C84.8068 18.7472 85.0795 19.6449 85.1989 20.6562Z" fill="white"/>
<path d="M87.8452 32V14.5455H91.5355V21.7472H99.027V14.5455H102.709V32H99.027V24.7898H91.5355V32H87.8452Z" fill="white"/>
<path d="M105.751 32V14.5455H117.513V17.5881H109.442V21.7472H116.908V24.7898H109.442V28.9574H117.547V32H105.751Z" fill="white"/>
<path d="M120.447 32V14.5455H127.333C128.651 14.5455 129.776 14.7812 130.708 15.2528C131.646 15.7187 132.359 16.3807 132.847 17.2386C133.342 18.0909 133.589 19.0937 133.589 20.2472C133.589 21.4062 133.339 22.4034 132.839 23.2386C132.339 24.0682 131.614 24.7045 130.665 25.1477C129.722 25.5909 128.58 25.8125 127.239 25.8125H122.629V22.8466H126.643C127.347 22.8466 127.933 22.75 128.398 22.5568C128.864 22.3636 129.211 22.0739 129.438 21.6875C129.671 21.3011 129.788 20.821 129.788 20.2472C129.788 19.6676 129.671 19.179 129.438 18.7812C129.211 18.3835 128.861 18.0824 128.39 17.8778C127.924 17.6676 127.336 17.5625 126.626 17.5625H124.137V32H120.447ZM129.873 24.0568L134.211 32H130.137L125.893 24.0568H129.873Z" fill="white"/>
</svg>
