<svg width="83" height="75" viewBox="0 0 83 75" fill="none" xmlns="http://www.w3.org/2000/svg">
<path d="M52.2792 37.9015C61.7223 31.4012 64.1154 18.4659 57.6242 9.00953C51.133 -0.446817 38.2158 -2.8432 28.7726 3.65704C19.3295 10.1573 16.9365 23.0926 23.4276 32.549C25.2717 35.2354 27.6343 37.352 30.2886 38.8567L44.8389 28.8409C40.789 31.0201 35.6647 29.8411 33.0003 25.9596C30.1433 21.7975 31.1965 16.1041 35.3528 13.2431C39.5091 10.382 45.1945 11.4368 48.0516 15.5989C50.9086 19.761 49.8553 25.4544 45.699 28.3154L52.2792 37.9015Z" fill="#040000"/>
<path d="M10.3776 36.2256C0.453856 41.9631 -2.94627 54.6702 2.78321 64.6079C8.51269 74.5455 21.2021 77.9504 31.1259 72.2129C41.0496 66.4754 44.4497 53.7682 38.7203 43.8306C37.0926 41.0075 34.9033 38.7116 32.3752 37.0027L17.0844 45.8432C21.2927 43.9893 26.3086 45.5677 28.6604 49.6468C31.1822 54.0207 29.6857 59.6137 25.3178 62.139C20.95 64.6643 15.3648 63.1656 12.8431 58.7917C10.3213 54.4177 11.8178 48.8248 16.1857 46.2995L10.3776 36.2256Z" fill="#040000"/>
<path d="M51.8741 36.2256C41.9504 41.9631 38.5503 54.6702 44.2797 64.6079C50.0092 74.5455 62.6987 77.9504 72.6224 72.2129C82.5461 66.4754 85.9463 53.7682 80.2168 43.8306C78.5891 41.0075 76.3998 38.7116 73.8717 37.0027L58.5809 45.8432C62.7892 43.9893 67.8052 45.5677 70.1569 49.6468C72.6787 54.0207 71.1822 59.6137 66.8143 62.139C62.4465 64.6643 56.8614 63.1656 54.3396 58.7917C51.8178 54.4177 53.3143 48.8248 57.6822 46.2995L51.8741 36.2256Z" fill="#040000"/>
</svg>
